# xmcd
#
# Track frame offsets:
#	150
#	18157
#	37425
#	53084
#
# Disc length: 948 seconds
#
# Revision: 0
# Processed by: cddbd v1.4PL0 Copyright (c) Steve Scherf et al.
# Submitted via: EasyCDDAExtractor 4.6.9.1
#
DISCID=2e03b204
DTITLE=Roméo - Secret Love (Single)
DYEAR=1999
DGENRE=R&B
TTITLE0=Secret Love (Radio Edit)
TTITLE1=Secret Love (Acoustic Version)
TTITLE2=Secret Love (Tune Town Remix)
TTITLE3=Secret Love (Instrumental)
EXTD=
EXTT0=
EXTT1=
EXTT2=
EXTT3=
PLAYORDER=
